<svg width="944" height="572" viewBox="0 0 944 572" fill="none" xmlns="http://www.w3.org/2000/svg">
<rect width="944" height="572" fill="white"/>
<path d="M167.619 405.22H152.215C151.073 399.924 149.001 394.969 146.179 390.524L156.99 379.853C159.195 377.677 159.195 374.115 156.99 371.937L150.707 365.735C148.502 363.558 144.893 363.558 142.689 365.735L131.968 376.316C127.455 373.443 122.407 371.323 117 370.135V355.216C117 352.137 114.448 349.618 111.33 349.618H102.444C99.3253 349.618 96.7734 352.137 96.7734 355.216V370.135C91.3696 371.322 86.3245 373.44 81.8143 376.311L71.0756 365.709C68.8709 363.533 65.262 363.533 63.0573 365.709L56.7739 371.912C54.5692 374.088 54.5692 377.65 56.7739 379.827L67.6007 390.514C64.782 394.951 62.7114 399.897 61.5675 405.184H46.1169C42.9982 405.184 40.4463 407.703 40.4463 410.78V419.552C40.4463 422.63 42.9982 425.149 46.1169 425.149H61.7462C62.9628 430.33 65.0679 435.17 67.8982 439.509L56.7471 450.516C54.5424 452.693 54.5424 456.255 56.7471 458.431L63.0305 464.634C65.2352 466.81 68.8441 466.81 71.0488 464.634L82.2803 453.547C86.6615 456.263 91.533 458.271 96.7377 459.419V475.152C96.7377 478.231 99.2896 480.749 102.408 480.749H111.295C114.413 480.749 116.965 478.23 116.965 475.152V459.436C122.175 458.295 127.053 456.292 131.441 453.581L142.663 464.659C144.868 466.835 148.477 466.835 150.683 464.659L156.966 458.457C159.171 456.28 159.171 452.718 156.966 450.542L145.842 439.561C148.684 435.218 150.796 430.372 152.019 425.185H167.621C170.739 425.185 173.291 422.666 173.291 419.587V410.815C173.289 407.738 170.738 405.22 167.619 405.22ZM106.885 437.659C94.0862 437.659 83.71 427.416 83.71 414.782C83.71 402.148 94.0862 391.905 106.885 391.905C119.684 391.905 130.061 402.148 130.061 414.782C130.061 427.416 119.684 437.659 106.885 437.659Z" fill="#D5E7E8"/>
<path d="M886.307 184.704H870.902C869.761 179.407 867.689 174.452 864.867 170.008L875.678 159.335C877.883 157.159 877.883 153.597 875.678 151.419L869.395 145.217C867.19 143.04 863.581 143.04 861.376 145.217L850.655 155.798C846.143 152.925 841.095 150.805 835.687 149.617V134.698C835.687 131.62 833.135 129.102 830.018 129.102H821.132C818.013 129.102 815.462 131.621 815.462 134.698V149.617C810.059 150.804 805.013 152.922 800.503 155.792L789.765 145.19C787.56 143.014 783.951 143.014 781.746 145.19L775.463 151.393C773.258 153.569 773.258 157.131 775.463 159.308L786.29 169.995C783.471 174.432 781.4 179.378 780.256 184.664H764.807C761.688 184.664 759.136 187.184 759.136 190.262V199.034C759.136 202.113 761.688 204.632 764.807 204.632H780.436C781.653 209.812 783.758 214.652 786.588 218.991L775.437 229.998C773.233 232.175 773.233 235.737 775.437 237.913L781.721 244.116C783.925 246.292 787.534 246.292 789.739 244.116L800.97 233.029C805.352 235.745 810.223 237.753 815.428 238.901V254.634C815.428 257.713 817.98 260.231 821.098 260.231H829.985C833.104 260.231 835.655 257.712 835.655 254.634V238.918C840.865 237.777 845.743 235.774 850.131 233.063L861.353 244.141C863.558 246.317 867.167 246.317 869.373 244.141L875.656 237.939C877.861 235.762 877.861 232.2 875.656 230.024L864.532 219.043C867.374 214.7 869.488 209.854 870.709 204.667H886.311C889.429 204.667 891.981 202.148 891.981 199.069V190.297C891.978 187.223 889.426 184.704 886.307 184.704ZM825.573 217.144C812.774 217.144 802.398 206.901 802.398 194.267C802.398 181.633 812.774 171.39 825.573 171.39C838.372 171.39 848.748 181.633 848.748 194.267C848.748 206.901 838.373 217.144 825.573 217.144Z" fill="#D5E7E8"/>
<path d="M719.725 141.294H712.095C711.53 138.67 710.503 136.217 709.106 134.015L714.46 128.73C715.552 127.653 715.552 125.887 714.46 124.81L711.347 121.738C710.254 120.659 708.469 120.659 707.376 121.738L702.066 126.979C699.831 125.556 697.332 124.506 694.653 123.918V116.528C694.653 115.003 693.389 113.756 691.845 113.756H687.443C685.898 113.756 684.635 115.003 684.635 116.528V123.916C681.959 124.505 679.459 125.553 677.225 126.975L671.906 121.724C670.813 120.646 669.027 120.646 667.934 121.724L664.822 124.796C663.729 125.875 663.729 127.639 664.822 128.716L670.185 134.01C668.788 136.208 667.763 138.658 667.196 141.276H659.544C658 141.276 656.736 142.524 656.736 144.049V148.394C656.736 149.918 658 151.166 659.544 151.166H667.286C667.888 153.732 668.931 156.128 670.333 158.278L664.81 163.73C663.718 164.807 663.718 166.571 664.81 167.65L667.923 170.722C669.015 171.8 670.803 171.8 671.894 170.722L677.456 165.232C679.626 166.576 682.039 167.572 684.617 168.14V175.933C684.617 177.458 685.88 178.705 687.425 178.705H691.827C693.371 178.705 694.635 177.458 694.635 175.933V168.149C697.215 167.585 699.632 166.592 701.805 165.249L707.363 170.736C708.454 171.814 710.242 171.814 711.334 170.736L714.447 167.664C715.54 166.586 715.54 164.822 714.447 163.744L708.937 158.305C710.344 156.154 711.391 153.753 711.997 151.185H719.724C721.269 151.185 722.533 149.937 722.533 148.413V144.068C722.534 142.542 721.27 141.294 719.725 141.294ZM689.645 157.36C683.306 157.36 678.167 152.286 678.167 146.03C678.167 139.773 683.307 134.7 689.645 134.7C695.985 134.7 701.123 139.772 701.123 146.03C701.123 152.288 695.985 157.36 689.645 157.36Z" fill="#D5E7E8"/>
<path d="M773.102 302.925H767.965C767.585 301.158 766.894 299.506 765.952 298.024L769.557 294.465C770.293 293.739 770.293 292.551 769.557 291.825L767.462 289.757C766.727 289.032 765.525 289.032 764.788 289.757L761.214 293.286C759.708 292.328 758.026 291.621 756.222 291.224V286.249C756.222 285.222 755.372 284.383 754.331 284.383H751.368C750.328 284.383 749.478 285.222 749.478 286.249V291.224C747.677 291.62 745.994 292.327 744.489 293.283L740.908 289.749C740.173 289.023 738.969 289.023 738.234 289.749L736.139 291.816C735.403 292.542 735.403 293.731 736.139 294.456L739.749 298.02C738.809 299.5 738.119 301.149 737.737 302.912H732.586C731.545 302.912 730.695 303.753 730.695 304.778V307.703C730.695 308.73 731.547 309.569 732.586 309.569H737.798C738.204 311.297 738.906 312.911 739.85 314.358L736.131 318.029C735.396 318.755 735.396 319.942 736.131 320.669L738.226 322.737C738.961 323.463 740.165 323.463 740.9 322.737L744.646 319.04C746.106 319.946 747.731 320.615 749.466 320.998V326.244C749.466 327.271 750.318 328.11 751.357 328.11H754.32C755.36 328.11 756.211 327.27 756.211 326.244V321.003C757.948 320.622 759.574 319.954 761.037 319.051L764.779 322.744C765.514 323.47 766.718 323.47 767.453 322.744L769.548 320.676C770.284 319.951 770.284 318.762 769.548 318.036L765.839 314.374C766.786 312.927 767.491 311.31 767.899 309.581H773.101C774.142 309.581 774.992 308.74 774.992 307.715V304.79C774.993 303.764 774.142 302.925 773.102 302.925ZM752.849 313.742C748.582 313.742 745.121 310.327 745.121 306.113C745.121 301.9 748.58 298.485 752.849 298.485C757.117 298.485 760.578 301.9 760.578 306.113C760.578 310.327 757.117 313.742 752.849 313.742Z" fill="#D5E7E8"/>
<path d="M212.996 165.637H189.375C187.625 157.516 184.449 149.92 180.12 143.105L196.696 126.742C200.077 123.403 200.077 117.942 196.696 114.604L187.062 105.093C183.68 101.757 178.147 101.757 174.767 105.093L158.33 121.319C151.41 116.914 143.669 113.664 135.379 111.842V88.9673C135.379 84.2467 131.466 80.3856 126.685 80.3856H113.059C108.277 80.3856 104.365 84.248 104.365 88.9673V111.842C96.0803 113.662 88.3441 116.909 81.4275 121.31L64.9608 105.056C61.5791 101.719 56.0463 101.719 52.6659 105.056L43.0314 114.566C39.6497 117.904 39.6497 123.366 43.0314 126.703L59.6323 143.091C55.3097 149.894 52.1348 157.478 50.3821 165.585H26.6936C21.9115 165.585 18 169.447 18 174.166V187.616C18 192.336 21.9128 196.199 26.6936 196.199H50.6578C52.5229 204.141 55.7501 211.562 60.0906 218.217L42.9919 235.096C39.6102 238.433 39.6102 243.894 42.9919 247.232L52.6263 256.743C56.008 260.08 61.5408 260.08 64.9212 256.743L82.1424 239.743C88.8599 243.907 96.3305 246.987 104.309 248.747V272.87C104.309 277.591 108.222 281.452 113.004 281.452H126.629C131.411 281.452 135.324 277.589 135.324 272.87V248.771C143.312 247.022 150.793 243.951 157.52 239.794L174.729 256.779C178.109 260.116 183.642 260.116 187.025 256.779L196.659 247.269C200.04 243.932 200.04 238.469 196.659 235.132L179.603 218.295C183.96 211.637 187.201 204.206 189.075 196.252H212.997C217.779 196.252 221.691 192.389 221.691 187.669V174.218C221.689 169.499 217.777 165.637 212.996 165.637ZM119.871 215.377C100.246 215.377 84.3369 199.672 84.3369 180.299C84.3369 160.927 100.247 145.223 119.871 145.223C139.496 145.223 155.405 160.927 155.405 180.299C155.405 199.672 139.497 215.377 119.871 215.377Z" fill="#D5E7E8"/>
<path d="M379.104 182.299L343.359 290.672L273.785 274.29L310.806 162.767L379.104 182.299Z" fill="#D3E5E9"/>
<path d="M313.36 157.096L166.103 115.64C140.021 143.145 154.719 190.9 153.662 227.423C153.232 235.064 151.348 242.561 148.265 249.579L271.871 280.907L313.36 157.096Z" fill="#BD75E9"/>
<path d="M795.789 204.74C772.81 193.399 739.619 180.797 746.002 149.293C747.01 143.321 749.026 137.946 751.788 132.92L635.7 165.602L677.189 289.412L823.65 252.292C824.594 233.755 817.068 216.293 795.789 204.74Z" fill="#69B9E1"/>
<path d="M581.091 220.492C581.091 220.492 468.131 220.028 457.419 229.089C446.706 238.149 421.659 274.609 421.659 274.609L502.086 367.221L608.458 297.493L581.091 220.492Z" fill="#E3B28D"/>
<path d="M373.667 198.125C373.667 198.125 486.576 194.748 497.524 203.529C508.474 212.311 534.477 248.111 534.477 248.111L451.677 337.275L348.348 275.806L373.667 198.125Z" fill="#D39F80"/>
<path d="M563.791 317.672L492.1 236.881C487.14 231.293 487.715 222.714 493.377 217.818C499.038 212.922 507.729 213.489 512.689 219.078L584.38 299.869C589.339 305.458 588.765 314.037 583.103 318.933C577.442 323.829 568.752 323.262 563.791 317.672Z" fill="#D39F80"/>
<path d="M537.446 339.288L465.754 258.497C460.794 252.908 461.369 244.329 467.031 239.433C472.693 234.538 481.384 235.105 486.344 240.693L558.035 321.484C562.994 327.073 562.42 335.652 556.758 340.548C551.096 345.445 542.405 344.878 537.446 339.288Z" fill="#D39F80"/>
<path d="M511.101 360.904L439.41 280.114C434.45 274.523 435.025 265.946 440.687 261.05C446.348 256.154 455.039 256.721 459.999 262.311L531.69 343.102C536.649 348.691 536.075 357.27 530.413 362.166C524.751 367.06 516.06 366.493 511.101 360.904Z" fill="#D39F80"/>
<path d="M484.754 382.52L413.064 301.729C408.104 296.14 408.678 287.561 414.34 282.665C420.003 277.77 428.693 278.337 433.652 283.926L505.343 364.716C510.303 370.305 509.728 378.884 504.067 383.78C498.405 388.676 489.715 388.109 484.754 382.52Z" fill="#D39F80"/>
<path d="M581.091 220.492L570.516 192.946C570.516 192.946 504.482 167.39 467.072 179.55C429.664 191.709 391.686 186.192 405.371 202.404C419.057 218.616 482.468 205.555 489.312 207.357C496.154 209.158 531.738 235.277 531.738 235.277L581.091 220.492Z" fill="#E3B28D"/>
<path d="M429.229 342.223L444.136 320.412C448.346 314.252 456.895 312.613 463.135 316.769C469.375 320.925 471.036 329.364 466.826 335.524L451.919 357.334C447.709 363.494 439.16 365.134 432.92 360.978C426.68 356.822 425.019 348.382 429.229 342.223Z" fill="#E3B28D"/>
<path d="M401.129 322.894L421.735 292.745C425.946 286.586 434.495 284.946 440.735 289.102C446.975 293.258 448.636 301.697 444.426 307.857L423.819 338.008C419.609 344.167 411.059 345.807 404.819 341.651C398.579 337.493 396.918 329.054 401.129 322.894Z" fill="#E3B28D"/>
<path d="M373.028 303.565L401.962 261.231C406.172 255.072 414.722 253.432 420.962 257.588C427.202 261.744 428.863 270.183 424.652 276.343L395.718 318.677C391.508 324.836 382.959 326.476 376.719 322.32C370.479 318.164 368.818 309.725 373.028 303.565Z" fill="#E3B28D"/>
<path d="M344.927 284.237L363.053 257.716C367.281 251.531 375.787 249.899 382.053 254.072C388.318 258.245 389.971 266.642 385.743 272.827L367.616 299.348C363.389 305.533 354.882 307.165 348.616 302.992C342.352 298.818 340.7 290.422 344.927 284.237Z" fill="#E3B28D"/>
<path d="M569.954 190.805L605.699 299.178L675.273 282.796L638.252 171.273L569.954 190.805Z" fill="#D3E5E9"/>
<path d="M268.382 473.362C268.382 473.362 229.446 382.001 267.106 307.652C267.106 307.652 314.339 397.122 268.382 473.362Z" fill="#69B9E1"/>
<path opacity="0.58" d="M268.382 473.362C268.382 473.362 229.446 382.001 267.106 307.652C267.106 307.652 314.339 397.122 268.382 473.362Z" fill="url(#paint0_linear_5_879)"/>
<path d="M268.382 473.362C268.382 473.362 287.212 399.643 269.339 344.826C269.339 344.826 264.552 461.705 268.382 473.362Z" fill="#417080"/>
<path d="M300.583 485.347C300.583 485.347 335.601 392.454 414.627 363.741C414.627 363.741 386.967 460.867 300.583 485.347Z" fill="#69B9E1"/>
<path opacity="0.58" d="M300.583 485.347C300.583 485.347 335.601 392.454 414.627 363.741C414.627 363.741 386.967 460.867 300.583 485.347Z" fill="url(#paint1_linear_5_879)"/>
<path d="M300.583 485.347C300.583 485.347 365.452 444.363 390.463 392.338C390.463 392.338 305.881 474.265 300.583 485.347Z" fill="#417080"/>
<mask id="mask0_5_879" style="mask-type:luminance" maskUnits="userSpaceOnUse" x="180" y="332" width="85" height="148">
<path d="M253.865 479.739C253.865 479.739 153.644 425.695 186.78 332.649C186.78 332.649 299.983 379.134 253.865 479.739Z" fill="white"/>
</mask>
<g mask="url(#mask0_5_879)">
<path d="M253.865 479.739C253.865 479.739 153.644 425.695 186.78 332.649C186.78 332.649 299.983 379.134 253.865 479.739Z" fill="#626DEB"/>
</g>
<mask id="mask1_5_879" style="mask-type:luminance" maskUnits="userSpaceOnUse" x="180" y="332" width="85" height="148">
<path d="M253.865 479.739C253.865 479.739 153.644 425.695 186.78 332.649C186.78 332.649 299.983 379.134 253.865 479.739Z" fill="white"/>
</mask>
<g mask="url(#mask1_5_879)">
<path opacity="0.58" d="M253.865 479.739C253.865 479.739 153.644 425.695 186.78 332.649C186.78 332.649 299.983 379.134 253.865 479.739Z" fill="url(#paint2_linear_5_879)"/>
</g>
<mask id="mask2_5_879" style="mask-type:luminance" maskUnits="userSpaceOnUse" x="180" y="332" width="85" height="148">
<path d="M253.865 479.739C253.865 479.739 153.644 425.695 186.78 332.649C186.78 332.649 299.983 379.134 253.865 479.739Z" fill="white"/>
</mask>
<g mask="url(#mask2_5_879)">
<path d="M183.651 333.02C197.857 360.32 212.074 387.64 224.714 415.691C236.85 442.625 244.918 472.123 260.587 497.351C261.757 499.234 264.769 497.509 263.594 495.617C247.934 470.402 239.859 440.898 227.72 413.957C215.08 385.905 200.863 358.586 186.657 331.286C185.633 329.317 182.628 331.054 183.651 333.02Z" fill="white"/>
</g>
<mask id="mask3_5_879" style="mask-type:luminance" maskUnits="userSpaceOnUse" x="180" y="332" width="85" height="148">
<path d="M253.865 479.739C253.865 479.739 153.644 425.695 186.78 332.649C186.78 332.649 299.983 379.134 253.865 479.739Z" fill="white"/>
</mask>
<g mask="url(#mask3_5_879)">
<path d="M215.208 385.406C221.85 365.528 220.086 344.156 210.414 325.547C209.392 323.579 206.387 325.315 207.408 327.281C216.665 345.092 218.198 365.495 211.851 384.492C211.147 386.598 214.508 387.5 215.208 385.406Z" fill="white"/>
</g>
<mask id="mask4_5_879" style="mask-type:luminance" maskUnits="userSpaceOnUse" x="180" y="332" width="85" height="148">
<path d="M253.865 479.739C253.865 479.739 153.644 425.695 186.78 332.649C186.78 332.649 299.983 379.134 253.865 479.739Z" fill="white"/>
</mask>
<g mask="url(#mask4_5_879)">
<path d="M181.258 417.319C198.186 427.67 218.619 436.787 236.282 422.509C251.686 410.059 259.415 385.806 252.428 367.261C251.655 365.205 248.288 366.095 249.071 368.174C255.439 385.078 248.808 406.702 235.404 418.733C218.947 433.502 199.118 424.199 183.014 414.351C181.105 413.184 179.355 416.156 181.258 417.319Z" fill="white"/>
</g>
<mask id="mask5_5_879" style="mask-type:luminance" maskUnits="userSpaceOnUse" x="180" y="332" width="85" height="148">
<path d="M253.865 479.739C253.865 479.739 153.644 425.695 186.78 332.649C186.78 332.649 299.983 379.134 253.865 479.739Z" fill="white"/>
</mask>
<g mask="url(#mask5_5_879)">
<path d="M201.31 359.367C203.88 347.963 202.482 336.684 197.229 326.22C196.234 324.238 193.23 325.977 194.222 327.954C199.048 337.566 200.311 347.987 197.952 358.452C197.466 360.607 200.822 361.528 201.31 359.367Z" fill="white"/>
</g>
<mask id="mask6_5_879" style="mask-type:luminance" maskUnits="userSpaceOnUse" x="180" y="332" width="85" height="148">
<path d="M253.865 479.739C253.865 479.739 153.644 425.695 186.78 332.649C186.78 332.649 299.983 379.134 253.865 479.739Z" fill="white"/>
</mask>
<g mask="url(#mask6_5_879)">
<path d="M176.322 436.321C194.797 451.984 218.181 460.425 242.545 460.096C244.783 460.066 244.789 456.629 242.545 456.66C219.117 456.976 196.569 448.969 178.783 433.891C177.093 432.457 174.619 434.878 176.322 436.321Z" fill="white"/>
</g>
<mask id="mask7_5_879" style="mask-type:luminance" maskUnits="userSpaceOnUse" x="274" y="369" width="91" height="99">
<path d="M274.225 467.508C274.225 467.508 282.851 375.452 364.592 369.816C364.591 369.817 365.953 469.065 274.225 467.508Z" fill="white"/>
</mask>
<g mask="url(#mask7_5_879)">
<path d="M274.225 467.508C274.225 467.508 282.851 375.452 364.592 369.816C364.592 369.816 365.953 469.065 274.225 467.508Z" fill="#626DEB"/>
</g>
<mask id="mask8_5_879" style="mask-type:luminance" maskUnits="userSpaceOnUse" x="274" y="369" width="91" height="99">
<path d="M274.225 467.508C274.225 467.508 282.851 375.452 364.592 369.816C364.591 369.817 365.953 469.065 274.225 467.508Z" fill="white"/>
</mask>
<g mask="url(#mask8_5_879)">
<path opacity="0.58" d="M274.225 467.508C274.225 467.508 282.851 375.452 364.592 369.816C364.592 369.816 365.953 469.065 274.225 467.508Z" fill="url(#paint3_linear_5_879)"/>
</g>
<mask id="mask9_5_879" style="mask-type:luminance" maskUnits="userSpaceOnUse" x="274" y="369" width="91" height="99">
<path d="M274.225 467.508C274.225 467.508 282.851 375.452 364.592 369.816C364.591 369.817 365.953 469.065 274.225 467.508Z" fill="white"/>
</mask>
<g mask="url(#mask9_5_879)">
<path d="M363.432 367.451C346.804 387.398 330.164 407.361 312.368 426.312C296.065 443.674 276.773 458.94 262.895 478.357C261.834 479.841 264.308 481.251 265.36 479.78C279.523 459.965 299.417 444.364 316 426.581C333.192 408.145 349.327 388.786 365.452 369.443C366.61 368.053 364.601 366.048 363.432 367.451Z" fill="white"/>
</g>
<mask id="mask10_5_879" style="mask-type:luminance" maskUnits="userSpaceOnUse" x="274" y="369" width="91" height="99">
<path d="M274.225 467.508C274.225 467.508 282.851 375.452 364.592 369.816C364.591 369.817 365.953 469.065 274.225 467.508Z" fill="white"/>
</mask>
<g mask="url(#mask10_5_879)">
<path d="M333.401 408.115C350.748 406.542 366.432 398.497 377.554 385.234C378.717 383.847 376.707 381.842 375.534 383.241C364.915 395.904 350.007 403.791 333.401 405.296C331.587 405.461 331.57 408.281 333.401 408.115Z" fill="white"/>
</g>
<mask id="mask11_5_879" style="mask-type:luminance" maskUnits="userSpaceOnUse" x="274" y="369" width="91" height="99">
<path d="M274.225 467.508C274.225 467.508 282.851 375.452 364.592 369.816C364.591 369.817 365.953 469.065 274.225 467.508Z" fill="white"/>
</mask>
<g mask="url(#mask11_5_879)">
<path d="M298.259 393.046C295.738 409.981 295.761 428.935 314.195 436.761C328.681 442.91 348.109 440.635 359.658 429.76C360.991 428.506 358.969 426.515 357.639 427.768C347.178 437.616 329.762 439.645 316.502 434.616C298.617 427.831 298.635 409.769 301.012 393.796C301.277 392.02 298.526 391.255 298.259 393.046Z" fill="white"/>
</g>
<mask id="mask12_5_879" style="mask-type:luminance" maskUnits="userSpaceOnUse" x="274" y="369" width="91" height="99">
<path d="M274.225 467.508C274.225 467.508 282.851 375.452 364.592 369.816C364.591 369.817 365.953 469.065 274.225 467.508Z" fill="white"/>
</mask>
<g mask="url(#mask12_5_879)">
<path d="M349.122 389.267C358.447 387.543 366.645 382.82 372.753 375.652C373.928 374.272 371.918 372.268 370.733 373.658C364.912 380.491 357.248 384.905 348.362 386.548C346.559 386.882 347.323 389.599 349.122 389.267Z" fill="white"/>
</g>
<mask id="mask13_5_879" style="mask-type:luminance" maskUnits="userSpaceOnUse" x="274" y="369" width="91" height="99">
<path d="M274.225 467.508C274.225 467.508 282.851 375.452 364.592 369.816C364.591 369.817 365.953 469.065 274.225 467.508Z" fill="white"/>
</mask>
<g mask="url(#mask13_5_879)">
<path d="M282.071 395.906C276.162 414.836 277.454 434.776 285.602 452.861C286.348 454.516 288.809 453.083 288.067 451.439C280.238 434.062 279.155 414.814 284.823 396.655C285.367 394.918 282.611 394.175 282.071 395.906Z" fill="white"/>
</g>
<mask id="mask14_5_879" style="mask-type:luminance" maskUnits="userSpaceOnUse" x="34" y="371" width="244" height="117">
<path d="M277.233 487.424H34.722C34.722 487.424 47.0399 371.53 152.128 371.53C257.216 371.53 277.233 487.424 277.233 487.424Z" fill="white"/>
</mask>
<g mask="url(#mask14_5_879)">
<path d="M277.233 487.424H34.722C34.722 487.424 47.0399 371.53 152.128 371.53C257.216 371.53 277.233 487.424 277.233 487.424Z" fill="#69B9E1"/>
</g>
<mask id="mask15_5_879" style="mask-type:luminance" maskUnits="userSpaceOnUse" x="34" y="371" width="244" height="117">
<path d="M277.233 487.424H34.722C34.722 487.424 47.0399 371.53 152.128 371.53C257.216 371.53 277.233 487.424 277.233 487.424Z" fill="white"/>
</mask>
<g mask="url(#mask15_5_879)">
<path opacity="0.58" d="M277.233 487.424H34.722C34.722 487.424 47.0399 371.53 152.128 371.53C257.216 371.53 277.233 487.424 277.233 487.424Z" fill="url(#paint4_linear_5_879)"/>
</g>
<mask id="mask16_5_879" style="mask-type:luminance" maskUnits="userSpaceOnUse" x="34" y="371" width="244" height="117">
<path d="M277.233 487.424H34.722C34.722 487.424 47.0399 371.53 152.128 371.53C257.216 371.53 277.233 487.424 277.233 487.424Z" fill="white"/>
</mask>
<g mask="url(#mask16_5_879)">
<path d="M144.473 505.773C143.429 505.086 77.6295 448.038 87.0291 444.944C96.4286 441.852 142.733 491.682 142.733 491.682C142.733 491.682 108.963 420.887 116.275 419.513C123.586 418.138 147.956 487.903 147.956 487.903C147.956 487.903 151.437 417.107 158.052 415.39C164.668 413.671 163.275 489.278 163.275 489.278C163.275 489.278 189.386 431.198 199.134 435.666C208.882 440.133 171.283 489.62 171.283 489.62C171.283 489.62 214.802 452.161 228.727 458.003C242.653 463.845 155.268 509.896 155.268 509.896L144.824 507.491" fill="#7AD3F1"/>
</g>
<path d="M201.795 487.538H396.758C396.758 487.538 394.669 473.791 370.299 475.166C370.299 475.166 395.365 445.955 386.314 443.205C377.261 440.455 357.765 457.295 357.765 457.295C357.765 457.295 396.062 426.366 380.047 421.554C364.032 416.743 334.091 449.735 334.091 449.735C334.091 449.735 339.661 397.498 327.128 397.498C314.595 397.498 308.328 453.858 308.328 453.858C308.328 453.858 294.75 397.498 285.002 397.498C275.254 397.498 277.343 457.639 277.343 457.639C277.343 457.639 260.979 419.493 248.794 421.21C236.609 422.928 258.194 467.261 258.194 467.261C258.194 467.261 236.26 429.802 214.327 438.05C192.394 446.297 242.527 476.54 242.527 476.54C242.527 476.54 202.492 474.478 201.795 487.538Z" fill="#487D9D"/>
<path opacity="0.58" d="M201.795 487.538H396.758C396.758 487.538 394.669 473.791 370.299 475.166C370.299 475.166 395.365 445.955 386.314 443.205C377.261 440.455 357.765 457.295 357.765 457.295C357.765 457.295 396.062 426.366 380.047 421.554C364.032 416.743 334.091 449.735 334.091 449.735C334.091 449.735 339.661 397.498 327.128 397.498C314.595 397.498 308.328 453.858 308.328 453.858C308.328 453.858 294.75 397.498 285.002 397.498C275.254 397.498 277.343 457.639 277.343 457.639C277.343 457.639 260.979 419.493 248.794 421.21C236.609 422.928 258.194 467.261 258.194 467.261C258.194 467.261 236.26 429.802 214.327 438.05C192.394 446.297 242.527 476.54 242.527 476.54C242.527 476.54 202.492 474.478 201.795 487.538Z" fill="url(#paint5_linear_5_879)"/>
<path d="M688.388 473.362C688.388 473.362 727.324 382.001 689.664 307.652C689.664 307.652 642.43 397.122 688.388 473.362Z" fill="#69B9E1"/>
<path opacity="0.58" d="M688.388 473.362C688.388 473.362 727.324 382.001 689.664 307.652C689.664 307.652 642.43 397.122 688.388 473.362Z" fill="url(#paint6_linear_5_879)"/>
<path d="M688.388 473.362C688.388 473.362 669.558 399.643 687.43 344.826C687.43 344.826 692.217 461.705 688.388 473.362Z" fill="#417080"/>
<path d="M656.187 485.347C656.187 485.347 621.169 392.454 542.142 363.741C542.142 363.741 569.804 460.867 656.187 485.347Z" fill="#69B9E1"/>
<path opacity="0.58" d="M656.187 485.347C656.187 485.347 621.169 392.454 542.142 363.741C542.142 363.741 569.804 460.867 656.187 485.347Z" fill="url(#paint7_linear_5_879)"/>
<path d="M656.187 485.347C656.187 485.347 591.318 444.363 566.307 392.338C566.307 392.338 650.89 474.265 656.187 485.347Z" fill="#417080"/>
<mask id="mask17_5_879" style="mask-type:luminance" maskUnits="userSpaceOnUse" x="691" y="332" width="86" height="148">
<path d="M702.905 479.739C702.905 479.739 803.125 425.695 769.99 332.649C769.99 332.649 656.787 379.134 702.905 479.739Z" fill="white"/>
</mask>
<g mask="url(#mask17_5_879)">
<path d="M702.905 479.739C702.905 479.739 803.125 425.695 769.99 332.649C769.99 332.649 656.787 379.134 702.905 479.739Z" fill="#626DEB"/>
</g>
<mask id="mask18_5_879" style="mask-type:luminance" maskUnits="userSpaceOnUse" x="691" y="332" width="86" height="148">
<path d="M702.905 479.739C702.905 479.739 803.125 425.695 769.99 332.649C769.99 332.649 656.787 379.134 702.905 479.739Z" fill="white"/>
</mask>
<g mask="url(#mask18_5_879)">
<path opacity="0.58" d="M702.905 479.739C702.905 479.739 803.125 425.695 769.99 332.649C769.99 332.649 656.787 379.134 702.905 479.739Z" fill="url(#paint8_linear_5_879)"/>
</g>
<mask id="mask19_5_879" style="mask-type:luminance" maskUnits="userSpaceOnUse" x="691" y="332" width="86" height="148">
<path d="M702.905 479.739C702.905 479.739 803.125 425.695 769.99 332.649C769.99 332.649 656.787 379.134 702.905 479.739Z" fill="white"/>
</mask>
<g mask="url(#mask19_5_879)">
<path d="M770.113 331.284C755.907 358.584 741.689 385.904 729.05 413.955C716.911 440.896 708.836 470.401 693.176 495.616C692.002 497.506 695.012 499.235 696.183 497.35C711.852 472.12 719.92 442.625 732.056 415.689C744.696 387.638 758.913 360.318 773.119 333.018C774.142 331.055 771.138 329.315 770.113 331.284Z" fill="white"/>
</g>
<mask id="mask20_5_879" style="mask-type:luminance" maskUnits="userSpaceOnUse" x="691" y="332" width="86" height="148">
<path d="M702.905 479.739C702.905 479.739 803.125 425.695 769.99 332.649C769.99 332.649 656.787 379.134 702.905 479.739Z" fill="white"/>
</mask>
<g mask="url(#mask20_5_879)">
<path d="M744.919 384.492C738.572 365.496 740.104 345.095 749.362 327.281C750.383 325.316 747.379 323.576 746.355 325.547C736.684 344.156 734.921 365.528 741.562 385.406C742.26 387.496 745.624 386.601 744.919 384.492Z" fill="white"/>
</g>
<mask id="mask21_5_879" style="mask-type:luminance" maskUnits="userSpaceOnUse" x="691" y="332" width="86" height="148">
<path d="M702.905 479.739C702.905 479.739 803.125 425.695 769.99 332.649C769.99 332.649 656.787 379.134 702.905 479.739Z" fill="white"/>
</mask>
<g mask="url(#mask21_5_879)">
<path d="M773.755 414.351C757.628 424.213 737.844 433.473 721.365 418.733C707.946 406.731 701.34 385.051 707.697 368.174C708.48 366.099 705.116 365.203 704.34 367.261C697.353 385.806 705.083 410.059 720.486 422.509C738.151 436.787 758.584 427.67 775.511 417.319C777.412 416.157 775.666 413.183 773.755 414.351Z" fill="white"/>
</g>
<mask id="mask22_5_879" style="mask-type:luminance" maskUnits="userSpaceOnUse" x="691" y="332" width="86" height="148">
<path d="M702.905 479.739C702.905 479.739 803.125 425.695 769.99 332.649C769.99 332.649 656.787 379.134 702.905 479.739Z" fill="white"/>
</mask>
<g mask="url(#mask22_5_879)">
<path d="M758.817 358.453C756.458 347.985 757.723 337.565 762.548 327.955C763.539 325.979 760.537 324.236 759.541 326.221C754.288 336.687 752.89 347.965 755.46 359.368C755.948 361.524 759.304 360.611 758.817 358.453Z" fill="white"/>
</g>
<mask id="mask23_5_879" style="mask-type:luminance" maskUnits="userSpaceOnUse" x="691" y="332" width="86" height="148">
<path d="M702.905 479.739C702.905 479.739 803.125 425.695 769.99 332.649C769.99 332.649 656.787 379.134 702.905 479.739Z" fill="white"/>
</mask>
<g mask="url(#mask23_5_879)">
<path d="M777.985 433.891C760.2 448.97 737.653 456.976 714.223 456.66C711.982 456.629 711.982 460.066 714.223 460.096C738.587 460.425 761.973 451.984 780.447 436.321C782.151 434.878 779.678 432.456 777.985 433.891Z" fill="white"/>
</g>
<mask id="mask24_5_879" style="mask-type:luminance" maskUnits="userSpaceOnUse" x="592" y="369" width="91" height="99">
<path d="M682.546 467.508C682.546 467.508 673.92 375.452 592.179 369.816C592.179 369.817 590.816 469.065 682.546 467.508Z" fill="white"/>
</mask>
<g mask="url(#mask24_5_879)">
<path d="M682.546 467.508C682.546 467.508 673.92 375.452 592.179 369.816C592.179 369.816 590.816 469.065 682.546 467.508Z" fill="#626DEB"/>
</g>
<mask id="mask25_5_879" style="mask-type:luminance" maskUnits="userSpaceOnUse" x="592" y="369" width="91" height="99">
<path d="M682.546 467.508C682.546 467.508 673.92 375.452 592.179 369.816C592.179 369.817 590.816 469.065 682.546 467.508Z" fill="white"/>
</mask>
<g mask="url(#mask25_5_879)">
<path opacity="0.58" d="M682.546 467.508C682.546 467.508 673.92 375.452 592.179 369.816C592.179 369.816 590.816 469.065 682.546 467.508Z" fill="url(#paint9_linear_5_879)"/>
</g>
<mask id="mask26_5_879" style="mask-type:luminance" maskUnits="userSpaceOnUse" x="592" y="369" width="91" height="99">
<path d="M682.546 467.508C682.546 467.508 673.92 375.452 592.179 369.816C592.179 369.817 590.816 469.065 682.546 467.508Z" fill="white"/>
</mask>
<g mask="url(#mask26_5_879)">
<path d="M591.318 369.443C607.443 388.786 623.576 408.145 640.77 426.581C657.352 444.364 677.247 459.965 691.409 479.78C692.46 481.25 694.937 479.844 693.874 478.357C679.997 458.94 660.704 443.672 644.401 426.313C626.604 407.361 609.965 387.398 593.338 367.451C592.17 366.05 590.159 368.053 591.318 369.443Z" fill="white"/>
</g>
<mask id="mask27_5_879" style="mask-type:luminance" maskUnits="userSpaceOnUse" x="592" y="369" width="91" height="99">
<path d="M682.546 467.508C682.546 467.508 673.92 375.452 592.179 369.816C592.179 369.817 590.816 469.065 682.546 467.508Z" fill="white"/>
</mask>
<g mask="url(#mask27_5_879)">
<path d="M623.368 405.296C606.762 403.791 591.854 395.904 581.236 383.241C580.064 381.842 578.053 383.846 579.217 385.234C590.338 398.496 606.023 406.543 623.368 408.115C625.196 408.281 625.185 405.461 623.368 405.296Z" fill="white"/>
</g>
<mask id="mask28_5_879" style="mask-type:luminance" maskUnits="userSpaceOnUse" x="592" y="369" width="91" height="99">
<path d="M682.546 467.508C682.546 467.508 673.92 375.452 592.179 369.816C592.179 369.817 590.816 469.065 682.546 467.508Z" fill="white"/>
</mask>
<g mask="url(#mask28_5_879)">
<path d="M655.758 393.794C658.131 409.739 658.164 427.861 640.268 434.614C626.995 439.622 609.602 437.626 599.131 427.767C597.801 426.515 595.779 428.505 597.113 429.759C608.659 440.632 628.094 442.906 642.576 436.759C660.997 428.939 661.033 409.981 658.512 393.045C658.245 391.258 655.492 392.018 655.758 393.794Z" fill="white"/>
</g>
<mask id="mask29_5_879" style="mask-type:luminance" maskUnits="userSpaceOnUse" x="592" y="369" width="91" height="99">
<path d="M682.546 467.508C682.546 467.508 673.92 375.452 592.179 369.816C592.179 369.817 590.816 469.065 682.546 467.508Z" fill="white"/>
</mask>
<g mask="url(#mask29_5_879)">
<path d="M608.408 386.548C599.519 384.905 591.857 380.488 586.037 373.658C584.852 372.268 582.842 374.271 584.017 375.652C590.124 382.82 598.321 387.541 607.648 389.267C609.444 389.599 610.214 386.884 608.408 386.548Z" fill="white"/>
</g>
<mask id="mask30_5_879" style="mask-type:luminance" maskUnits="userSpaceOnUse" x="592" y="369" width="91" height="99">
<path d="M682.546 467.508C682.546 467.508 673.92 375.452 592.179 369.816C592.179 369.817 590.816 469.065 682.546 467.508Z" fill="white"/>
</mask>
<g mask="url(#mask30_5_879)">
<path d="M671.946 396.655C677.616 414.815 676.532 434.061 668.703 451.439C667.962 453.082 670.422 454.517 671.168 452.861C679.316 434.776 680.609 414.839 674.699 395.906C674.16 394.177 671.403 394.915 671.946 396.655Z" fill="white"/>
</g>
<mask id="mask31_5_879" style="mask-type:luminance" maskUnits="userSpaceOnUse" x="679" y="371" width="244" height="117">
<path d="M679.537 487.424H922.048C922.048 487.424 909.73 371.53 804.642 371.53C699.554 371.53 679.537 487.424 679.537 487.424Z" fill="white"/>
</mask>
<g mask="url(#mask31_5_879)">
<path d="M679.537 487.424H922.048C922.048 487.424 909.73 371.53 804.642 371.53C699.554 371.53 679.537 487.424 679.537 487.424Z" fill="#69B9E1"/>
</g>
<mask id="mask32_5_879" style="mask-type:luminance" maskUnits="userSpaceOnUse" x="679" y="371" width="244" height="117">
<path d="M679.537 487.424H922.048C922.048 487.424 909.73 371.53 804.642 371.53C699.554 371.53 679.537 487.424 679.537 487.424Z" fill="white"/>
</mask>
<g mask="url(#mask32_5_879)">
<path opacity="0.58" d="M679.537 487.424H922.048C922.048 487.424 909.73 371.53 804.642 371.53C699.554 371.53 679.537 487.424 679.537 487.424Z" fill="url(#paint10_linear_5_879)"/>
</g>
<mask id="mask33_5_879" style="mask-type:luminance" maskUnits="userSpaceOnUse" x="679" y="371" width="244" height="117">
<path d="M679.537 487.424H922.048C922.048 487.424 909.73 371.53 804.642 371.53C699.554 371.53 679.537 487.424 679.537 487.424Z" fill="white"/>
</mask>
<g mask="url(#mask33_5_879)">
<path d="M812.296 505.773C813.341 505.086 879.14 448.038 869.741 444.944C860.341 441.852 814.036 491.682 814.036 491.682C814.036 491.682 847.806 420.887 840.495 419.513C833.184 418.138 808.814 487.903 808.814 487.903C808.814 487.903 805.333 417.107 798.717 415.39C792.102 413.671 793.495 489.278 793.495 489.278C793.495 489.278 767.383 431.198 757.635 435.666C747.887 440.133 785.487 489.62 785.487 489.62C785.487 489.62 741.969 452.161 728.043 458.003C714.116 463.845 801.502 509.896 801.502 509.896L811.947 507.491" fill="#7AD3F1"/>
</g>
<path d="M754.975 487.538H560.012C560.012 487.538 562.101 473.791 586.471 475.166C586.471 475.166 561.404 445.955 570.456 443.205C579.508 440.455 599.004 457.295 599.004 457.295C599.004 457.295 560.708 426.366 576.723 421.554C592.738 416.743 622.679 449.735 622.679 449.735C622.679 449.735 617.109 397.498 629.641 397.498C642.175 397.498 648.442 453.858 648.442 453.858C648.442 453.858 662.02 397.498 671.768 397.498C681.516 397.498 679.427 457.639 679.427 457.639C679.427 457.639 695.791 419.493 707.976 421.21C720.161 422.929 698.576 467.261 698.576 467.261C698.576 467.261 720.509 429.802 742.443 438.05C764.376 446.297 714.243 476.54 714.243 476.54C714.243 476.54 754.279 474.478 754.975 487.538Z" fill="#487D9D"/>
<path opacity="0.58" d="M754.975 487.538H560.012C560.012 487.538 562.101 473.791 586.471 475.166C586.471 475.166 561.404 445.955 570.456 443.205C579.508 440.455 599.004 457.295 599.004 457.295C599.004 457.295 560.708 426.366 576.723 421.554C592.738 416.743 622.679 449.735 622.679 449.735C622.679 449.735 617.109 397.498 629.641 397.498C642.175 397.498 648.442 453.858 648.442 453.858C648.442 453.858 662.02 397.498 671.768 397.498C681.516 397.498 679.427 457.639 679.427 457.639C679.427 457.639 695.791 419.493 707.976 421.21C720.161 422.929 698.576 467.261 698.576 467.261C698.576 467.261 720.509 429.802 742.443 438.05C764.376 446.297 714.243 476.54 714.243 476.54C714.243 476.54 754.279 474.478 754.975 487.538Z" fill="url(#paint11_linear_5_879)"/>
<path d="M158.216 498.319L158.958 515.773C158.958 515.773 169.214 517.795 171.798 513.29L170.439 498.319H158.216Z" fill="#DFAD89"/>
<path d="M175.008 504.147C175.008 504.147 173.756 502.849 170.121 506.888C166.488 510.928 162.854 509.63 157.842 508.764C154.327 508.157 154.016 519.045 154.145 525.604C154.199 528.335 156.046 530.568 158.413 530.76C170.278 531.727 204.401 534.053 211.719 529.542C211.719 529.542 212.973 520.596 208.086 519.442C203.199 518.287 199.315 519.875 196.183 519.153C193.052 518.431 175.008 504.147 175.008 504.147Z" fill="#2A3239"/>
<path d="M99.7301 494.114L96.679 511.225C96.679 511.225 104.556 515.559 107.59 511.785L109.622 496.942L99.7301 494.114Z" fill="#DFAD89"/>
<path d="M110.335 512.978C110.516 513.315 115.749 532.117 118.542 535.413C121.335 538.709 119.036 545.901 112.432 546.351C105.828 546.801 93.6752 547.437 94.6199 536.302C95.3846 527.297 95.0718 509.988 95.7701 507.043C96.4684 504.098 98.1726 503.947 98.1726 503.947C98.1726 503.947 104.99 509.604 108.555 504.671L110.335 512.978Z" fill="#2A3239"/>
<path opacity="0.31" d="M99.2283 534.74C99.2283 534.74 107.715 530.469 115.049 534.178C115.049 534.178 108.134 512.939 104.782 513.726C101.428 514.512 99.2283 534.74 99.2283 534.74Z" fill="#494949"/>
<path d="M165.295 357.239C165.295 357.239 174.409 461.641 171.057 504.753C171.057 504.753 161.838 508.936 158.204 504.753C158.204 504.753 152.896 466.467 150.941 456.172C148.985 445.877 145.353 395.043 146.19 394.399C146.19 394.399 141.929 395.686 137.949 395.043C137.949 395.043 114.48 491.643 108.822 502.261C108.822 502.261 104.003 504.07 98.8683 499.727C93.7339 495.383 106.019 363.42 112.593 359.05L165.295 357.239Z" fill="#1C2853"/>
<path d="M112.593 350.724C112.593 350.724 145.387 360.858 164.665 346.139C164.665 346.139 164.979 353.137 165.293 357.239C165.293 357.239 139.205 372.32 112.592 359.048C112.592 359.048 111.756 352.395 112.593 350.724Z" fill="#1C2853"/>
<path d="M117.307 351.432V363.508H121.31V352.107L117.307 351.432Z" fill="#1C2853"/>
<path d="M130.201 353.864L130.905 367.534L136.981 366.811L136.213 354.124C136.213 354.124 130.689 353.904 130.201 353.864Z" fill="#1C2853"/>
<path d="M151.753 352.294L152.349 364.512L156.33 362.548L155.97 350.929L151.753 352.294Z" fill="#1C2853"/>
<path d="M160.51 348.835L162.198 362.125L165.027 358.732L164.665 346.139L160.51 348.835Z" fill="#1C2853"/>
<path d="M192.116 302.389C192.116 302.389 157.681 259.341 165.741 250.036C173.802 240.732 197.688 265.409 207.413 282.145C215.659 296.334 224.313 306.804 215.975 314.411C207.638 322.019 192.116 302.389 192.116 302.389Z" fill="#D3E5E9"/>
<path d="M109.643 350.303L103.472 253.764C103.472 253.764 116.988 236.744 149.607 236.744C149.607 236.744 171.057 237.625 184.575 254.937C184.575 254.937 177.817 327.708 165.475 349.422C165.475 349.422 146.668 362.04 109.643 350.303Z" fill="#69B9E1"/>
<path d="M127.64 239.693C127.53 240.023 133.627 260.453 145.087 261.554C156.547 262.654 167.788 241.637 167.788 241.637C167.788 241.637 159.744 236.172 147.695 236.172C138.55 236.172 127.64 239.693 127.64 239.693Z" fill="#D3E5E9"/>
<path d="M72.5999 293.717C72.5999 293.717 100.01 245.813 111.643 249.829C123.277 253.846 109.091 285.149 97.0875 300.378C86.9092 313.291 80.3463 325.199 70.1897 320.297C60.0344 315.394 72.5999 293.717 72.5999 293.717Z" fill="#D3E5E9"/>
<path d="M146.954 252.785C146.954 252.785 136.565 247.808 138.704 246.15C140.843 244.492 155.356 244.944 155.356 244.944C155.356 244.944 159.175 248.563 146.954 252.785Z" fill="#2A3239"/>
<path d="M145.731 249.92C145.731 249.92 139.773 276.838 142.828 281.061C145.883 285.284 150.772 297.875 150.772 297.875L155.402 277.24C155.673 276.032 155.675 274.781 155.407 273.571L150.009 249.167L145.731 249.92Z" fill="#2A3239"/>
<path d="M149.282 230.975C149.282 230.975 125.451 232.332 126.367 215.141C127.284 197.95 134.922 159.948 164.254 169.298C193.585 178.649 185.184 204.586 177.087 216.499C168.99 228.412 167.309 236.404 149.282 230.975Z" fill="#2A3239"/>
<path d="M161.931 240.293L164.026 212.796L145.768 192.771C145.768 192.771 131.7 224.601 131.102 242.833C131.102 242.833 148.612 258.077 161.931 240.293Z" fill="#E3B28D"/>
<path d="M149.367 196.718C148.57 196.732 147.772 196.732 146.974 196.723C142.401 207.703 138.259 219.69 144.572 230.581C148.077 236.805 154.879 238.724 162.007 239.306L164.027 212.797L149.367 196.718Z" fill="#D39F80"/>
<path d="M156.019 177.708C148.745 181.108 144.12 188.412 143.746 196.423C143.188 208.35 144.318 228.106 157.592 230.28C170.35 232.37 175.607 209.269 177.694 193.607C179.245 181.974 167.58 172.774 156.768 177.373C156.519 177.48 156.269 177.591 156.019 177.708Z" fill="#E3B28D"/>
<path d="M139.783 208.113C139.783 208.113 128.309 205.274 134.296 194.465C137.827 188.088 145.021 196.607 145.021 196.607L139.783 208.113Z" fill="#E3B28D"/>
<path d="M143.286 191.466C143.286 191.466 142.255 200.4 144.431 200.288C146.608 200.174 156.118 179.817 156.118 179.817C156.118 179.817 162.535 185.132 169.524 180.495C169.524 180.495 171.129 202.889 178.461 198.704C185.794 194.519 175.138 179.703 175.138 179.703C175.138 179.703 158.41 170.429 148.901 173.483C139.391 176.537 143.286 191.466 143.286 191.466Z" fill="#2A3239"/>
<path d="M66.3369 309.495C66.3369 309.495 61.3135 323.422 87.0024 329.304C112.691 335.183 127.4 337.148 127.4 337.148L129.873 327.134C129.873 327.134 88.3339 307.679 87.6075 307.568C86.8811 307.458 66.3369 309.495 66.3369 309.495Z" fill="#9AB0C5"/>
<path d="M129.872 327.135L140.639 331.463C140.639 331.463 150.763 323.368 152.06 329.285C153.357 335.201 143.85 340.792 137.967 339.442C132.083 338.092 127.399 337.148 127.399 337.148L129.872 327.135Z" fill="#DFAD89"/>
<path d="M211.689 293.859C217.908 296.219 221.7 307.967 217.188 312.86C214.329 315.961 213.385 317.656 206.266 323.039C191.905 333.897 187.377 333.161 187.377 333.161L184.035 323.495C184.035 323.495 201.85 301.129 202.218 300.495C205.272 295.216 209.366 292.978 211.689 293.859Z" fill="#9AB0C5"/>
<path d="M184.035 323.496L173.628 328.859C173.628 328.859 162.789 321.859 162.002 327.846C161.216 333.833 171.219 338.416 176.993 336.489C182.769 334.564 187.377 333.161 187.377 333.161L184.035 323.496Z" fill="#DFAD89"/>
<path d="M136.45 342.871L131.867 283.454L175.967 278.828L180.347 337.782L136.45 342.871Z" fill="#E4EFEF"/>
<path d="M66.3369 309.495C66.3369 309.495 61.3135 323.422 87.0024 329.304C112.691 335.183 127.4 337.148 127.4 337.148L129.873 327.134C129.873 327.134 88.3339 307.679 87.6075 307.568C86.8811 307.458 66.3369 309.495 66.3369 309.495Z" fill="#D3E5E9"/>
<path d="M129.872 327.135L140.639 331.463C140.639 331.463 150.763 323.368 152.06 329.285C153.357 335.201 143.85 340.792 137.967 339.442C132.083 338.092 127.399 337.148 127.399 337.148L129.872 327.135Z" fill="#DFAD89"/>
<path d="M211.689 293.859C217.908 296.219 221.7 307.967 217.188 312.86C214.329 315.961 213.385 317.656 206.266 323.039C191.905 333.897 187.377 333.161 187.377 333.161L184.035 323.495C184.035 323.495 201.85 301.129 202.218 300.495C205.272 295.216 209.366 292.978 211.689 293.859Z" fill="#D3E5E9"/>
<path d="M184.035 323.496L173.628 328.859C173.628 328.859 162.789 321.859 162.002 327.846C161.216 333.833 171.219 338.416 176.993 336.489C182.769 334.564 187.377 333.161 187.377 333.161L184.035 323.496Z" fill="#DFAD89"/>
<path d="M724.962 482.405C724.962 482.405 727.514 507.463 715.278 513.306C703.042 519.148 671.978 513.062 671.977 512.187C671.976 511.313 669.13 481.596 669.13 481.596C669.13 481.596 705.124 486.804 724.962 482.405Z" fill="#626DEB"/>
<path d="M647.68 508.861L631.163 512.644C631.163 512.644 631.095 522.539 635.861 524.143L649.896 520.228L647.68 508.861Z" fill="#DFAD89"/>
<path d="M645.917 522.556C645.917 522.556 646.883 521.337 642.239 519.188C637.595 517.04 638.044 513.945 637.781 509.839C637.596 506.961 627.143 508.646 620.913 509.909C618.319 510.434 616.591 512.288 616.921 514.188C618.578 523.714 623.777 551.029 629.671 556C629.671 556 638.477 555.403 638.516 551.345C638.555 547.287 636.197 544.506 636.204 541.909C636.212 539.312 645.917 522.556 645.917 522.556Z" fill="#263E5E"/>
<path d="M645.216 507.799C645.216 507.799 722.462 465.529 744.36 477.726C766.257 489.924 735.103 514.888 701.525 518.681C667.946 522.474 644.68 524.613 644.68 524.613L645.216 507.799Z" fill="#626DEB"/>
<path d="M719.69 506.742L736.214 510.488C736.214 510.488 736.305 520.382 731.543 521.997L717.499 518.112L719.69 506.742Z" fill="#DFAD89"/>
<path d="M721.486 520.432C721.486 520.432 720.517 519.216 725.155 517.057C729.793 514.899 729.337 511.804 729.591 507.699C729.77 504.82 740.226 506.482 746.459 507.732C749.054 508.253 750.786 510.101 750.461 512.002C748.825 521.531 743.691 548.857 737.807 553.841C737.807 553.841 729 553.263 728.951 549.206C728.903 545.15 731.256 542.362 731.242 539.765C731.229 537.167 721.486 520.432 721.486 520.432Z" fill="#263E5E"/>
<path d="M722.151 505.675C722.151 505.675 644.807 463.573 622.938 475.819C601.069 488.065 632.28 512.961 665.867 516.681C699.454 520.399 722.727 522.489 722.727 522.489L722.151 505.675Z" fill="#626DEB"/>
<path d="M642.434 435.12C642.434 435.12 676.821 392.517 668.75 383.326C660.679 374.136 636.821 398.562 627.115 415.12C618.886 429.159 610.244 439.52 618.59 447.035C626.934 454.546 642.434 435.12 642.434 435.12Z" fill="#487D9D"/>
<path d="M724.962 482.405L731.023 386.943C731.023 386.943 717.486 370.13 684.869 370.165C684.869 370.165 663.42 371.06 649.923 388.192C649.923 388.192 656.764 460.139 669.13 481.595C669.13 481.595 687.95 494.051 724.962 482.405Z" fill="#487D9D"/>
<path d="M761.94 426.414C761.94 426.414 734.475 379.077 722.846 383.062C711.216 387.045 725.437 417.982 737.46 433.027C747.654 445.783 754.231 457.551 764.379 452.693C774.53 447.834 761.94 426.414 761.94 426.414Z" fill="#487D9D"/>
<path d="M672.548 373.687L670.421 346.501L688.656 326.68C688.656 326.68 702.76 358.138 703.379 376.165C703.379 376.165 685.887 391.256 672.548 373.687Z" fill="#E3B28D"/>
<path d="M685.062 330.588C685.859 330.6 686.657 330.599 687.455 330.59C692.04 341.443 696.197 353.291 689.895 364.065C686.396 370.223 679.597 372.127 672.47 372.712L670.42 346.503L685.062 330.588Z" fill="#D39F80"/>
<path d="M678.388 311.799C685.666 315.152 690.299 322.37 690.683 330.29C691.255 342.083 690.148 361.618 676.877 363.783C664.121 365.863 658.838 343.028 656.732 327.543C655.168 316.043 666.824 306.933 677.64 311.47C677.888 311.573 678.138 311.683 678.388 311.799Z" fill="#E3B28D"/>
<path d="M694.66 341.845C694.66 341.845 706.13 339.024 700.131 328.343C696.594 322.043 689.409 330.473 689.409 330.473L694.66 341.845Z" fill="#E3B28D"/>
<path d="M622.851 426.707C616.634 429.048 612.856 440.667 617.373 445.501C620.235 448.564 621.181 450.239 628.307 455.553C642.681 466.273 647.207 465.541 647.207 465.541L650.538 455.98C650.538 455.98 632.698 433.885 632.33 433.257C629.269 428.042 625.172 425.834 622.851 426.707Z" fill="#9AB0C5"/>
<path d="M650.539 455.98L660.952 461.272C660.952 461.272 671.783 454.339 672.577 460.257C673.371 466.176 663.372 470.719 657.595 468.82C651.818 466.922 647.207 465.54 647.207 465.54L650.539 455.98Z" fill="#DFAD89"/>
<path d="M622.851 426.707C616.634 429.048 612.856 440.667 617.373 445.501C620.235 448.564 621.181 450.239 628.307 455.553C642.681 466.273 647.207 465.541 647.207 465.541L650.538 455.98C650.538 455.98 632.698 433.885 632.33 433.257C629.269 428.042 625.172 425.834 622.851 426.707Z" fill="#5D6783"/>
<path d="M650.539 455.98L660.952 461.272C660.952 461.272 671.783 454.339 672.577 460.257C673.371 466.176 663.372 470.719 657.595 468.82C651.818 466.922 647.207 465.54 647.207 465.54L650.539 455.98Z" fill="#E3B28D"/>
<path d="M657.341 465.156L733.737 465.071L728.359 454.351L657.328 454.429L657.341 465.156Z" fill="#172836"/>
<path d="M676.338 395.306L589.125 395.402L611.69 465.206L695.156 465.114L676.338 395.306Z" fill="#263E5E"/>
<path d="M635.964 436.147C637.092 439.636 640.297 441.759 643.124 440.889C645.95 440.018 647.326 436.484 646.199 432.995C645.072 429.506 641.866 427.382 639.04 428.253C636.212 429.123 634.836 432.657 635.964 436.147Z" fill="#D3E5E9"/>
<path d="M767.923 442.591C767.923 442.591 772.962 456.357 747.281 462.199C721.598 468.043 706.892 470.001 706.892 470.001L704.408 460.102C704.408 460.102 745.925 440.821 746.65 440.71C747.377 440.599 767.923 442.591 767.923 442.591Z" fill="#487D9D"/>
<path d="M704.408 460.102L693.646 464.395C693.646 464.395 683.512 456.401 682.222 462.252C680.932 468.103 690.444 473.621 696.327 472.281C702.209 470.938 706.892 470.001 706.892 470.001L704.408 460.102Z" fill="#E3B28D"/>
<path d="M659.059 315.805C659.059 315.805 648.023 326.966 655.791 329.726C663.558 332.486 671.751 315.718 671.751 315.718C671.751 315.718 676.386 321.323 679.295 319.207C682.204 317.092 682.353 317.31 682.353 317.31C682.353 317.31 686.629 334.283 688.418 332.605C690.208 330.927 693.936 326.661 693.936 326.661C693.936 326.661 685.704 309.802 676.222 308.865C666.739 307.928 659.059 315.805 659.059 315.805Z" fill="#BD75E9"/>
<path d="M904.837 375.956L908.698 387.392C908.698 387.392 901.089 394.791 902.906 399.275C904.724 403.76 915.172 390.194 915.058 387.167C914.945 384.14 911.992 369.79 911.992 369.79L904.837 375.956Z" fill="#E3B28D"/>
<path d="M779.679 249.518L776.709 255.213L770.326 248.973C770.326 248.973 767.805 240.029 769.728 233.387C771.652 226.745 774.881 244.912 774.881 244.912L779.679 249.518Z" fill="#DFAD89"/>
<path d="M775.771 227.371C779.785 227.371 783.039 224.625 783.039 221.237C783.039 217.849 779.785 215.102 775.771 215.102C771.756 215.102 768.502 217.849 768.502 221.237C768.502 224.625 771.756 227.371 775.771 227.371Z" fill="#4250C9"/>
<path d="M734.764 199.217C734.764 199.217 724.443 219.265 730.99 239.312C730.99 239.312 750.633 217.458 734.764 199.217Z" fill="#5B9FB7"/>
<path d="M731.988 219.593C731.988 223.587 734.349 226.824 737.261 226.824C740.173 226.824 742.532 223.587 742.532 219.593C742.532 215.6 740.171 212.363 737.261 212.363C734.349 212.363 731.988 215.6 731.988 219.593Z" fill="#4250C9"/>
<path d="M770.888 227.207C770.888 227.207 760.344 251.965 766.005 253.391C771.665 254.815 775.437 253.5 775.659 249.995C775.882 246.489 777.213 226.331 777.213 226.331L770.888 227.207Z" fill="#4250C9"/>
<path d="M734.764 199.217L777.38 213.021C777.38 213.021 780.71 222.661 777.38 229.453L730.99 239.312C730.99 239.312 745.196 221.127 734.764 199.217Z" fill="#BD75E9"/>
<path d="M759.868 240.891C759.868 241.771 762.776 242.483 766.365 242.483C769.953 242.483 772.861 241.77 772.861 240.891C772.861 240.013 769.953 239.3 766.365 239.3C762.776 239.298 759.868 240.012 759.868 240.891Z" fill="#DFAD89"/>
<path d="M759.868 243.801C759.868 244.681 762.776 245.393 766.365 245.393C769.953 245.393 772.861 244.679 772.861 243.801C772.861 242.923 769.953 242.209 766.365 242.209C762.776 242.209 759.868 242.923 759.868 243.801Z" fill="#DFAD89"/>
<path d="M759.868 246.712C759.868 247.592 762.776 248.304 766.365 248.304C769.953 248.304 772.861 247.59 772.861 246.712C772.861 245.834 769.953 245.12 766.365 245.12C762.776 245.12 759.868 245.834 759.868 246.712Z" fill="#DFAD89"/>
<path d="M864.14 194.374C864.14 194.374 893.821 203.343 893.215 237.125C892.608 270.907 823.557 273.299 808.11 259.248C808.11 259.248 822.648 262.237 817.499 241.311C812.351 220.384 818.409 178.53 864.14 194.374Z" fill="#548DC0"/>
<path d="M824.471 349.274C824.471 349.274 811.324 424.012 821.835 496.328L831.23 495.927L852.558 375.537C852.558 375.537 855.772 322.225 824.471 349.274Z" fill="#487D9D"/>
<path d="M885.762 350.93C885.762 350.93 892.899 375.493 878.806 406.129C862.624 441.306 866.641 493.365 866.641 493.365L856.012 493.445C856.012 493.445 836.659 401.869 847.068 353.633L885.762 350.93Z" fill="#548DC0"/>
<path d="M885.352 264.843C885.352 264.843 892.489 285.128 883.653 305.8C874.816 326.473 885.762 352.167 885.762 352.167C885.762 352.167 847.556 367.53 824.47 350.291C824.47 350.291 827.89 312.392 827.686 283.936C827.659 280.262 829.39 270.952 831.13 267.705C833.398 263.471 838.147 259.05 848.087 259.355C866.889 259.933 877.765 257.179 885.352 264.843Z" fill="#D3E5E9"/>
<path d="M866.54 493.097L867.347 505.222L858.184 505.991L856.015 493.444L866.54 493.097Z" fill="#E1AF8B"/>
<path d="M831.228 495.927L830.572 505.267C830.572 505.267 824.074 507.052 823.819 506.549C823.564 506.046 821.835 496.378 821.835 496.378L831.228 495.927Z" fill="#E1AF8B"/>
<path d="M842.913 262.712L848.262 234.191L871.541 219.212C871.541 219.212 875.982 246.195 874.228 264.945C873.784 269.697 870.775 273.873 866.344 275.782C861.118 278.034 853.846 279.756 848.072 275.729C843.901 272.822 841.984 267.667 842.913 262.712Z" fill="#E3B28D"/>
<path d="M866.952 222.163C867.739 222.378 868.529 222.582 869.324 222.777C871.022 234.704 872.032 247.511 862.958 256.576C857.873 261.785 850.632 261.933 843.415 260.689L848.261 234.19L866.952 222.163Z" fill="#D39F80"/>
<path d="M865.267 201.835C871.602 207.021 874.3 215.358 872.603 223.307C870.074 235.14 863.85 254.219 850.126 252.968C836.935 251.768 837.69 227.784 839.667 211.899C841.135 200.101 855.079 194.054 864.611 201.316C864.831 201.484 865.05 201.656 865.267 201.835Z" fill="#E3B28D"/>
<path d="M873.512 235.775C873.512 235.775 885.623 235.914 882.48 223.793C880.626 216.645 871.29 223.162 871.29 223.162L873.512 235.775Z" fill="#E3B28D"/>
<path d="M833.788 269.724C833.788 269.724 820.274 286.445 824.332 298.963C829.239 314.1 866.124 310.173 866.124 310.173L877.574 284.34C877.574 284.34 839.89 288.206 833.788 269.724Z" fill="#D3E5E9"/>
<path d="M834.676 544.799H835.967C836.71 544.799 837.311 544.205 837.311 543.472V515.181C837.311 514.448 836.71 513.854 835.967 513.854H834.676C833.935 513.854 833.332 514.448 833.332 515.181V543.472C833.332 544.205 833.935 544.799 834.676 544.799Z" fill="#BD75E9"/>
<path d="M815.961 534.559C815.961 534.559 810.177 544 811.594 544.925C813.011 545.85 829.204 550.004 833.684 539.851C838.165 529.698 832.792 530.773 837.14 520.117C841.488 509.463 830.547 501.972 824.803 502.493C824.803 502.493 827.886 516.779 825.661 519.822C823.436 522.866 823.44 534.091 815.961 534.559Z" fill="#1C2853"/>
<path d="M832.975 506.153C832.994 506.187 833.144 506.433 833.164 506.467C833.164 506.467 834.019 510.341 831.873 521.487C829.908 531.688 830.692 536.946 822.307 536.941C820.431 536.94 818.571 536.485 817.03 535.488C816.583 535.199 816.19 534.881 815.961 534.557C815.961 534.557 817.687 531.368 817.573 523.493C817.493 518.067 816.136 509.975 819.761 505.401C823.173 501.094 830.258 501.434 832.975 506.153Z" fill="#DFAD89"/>
<path d="M871.929 544.007H873.219C873.962 544.007 874.564 543.414 874.564 542.68V514.39C874.564 513.657 873.962 513.063 873.219 513.063H871.929C871.187 513.063 870.584 513.657 870.584 514.39V542.68C870.584 543.412 871.186 544.007 871.929 544.007Z" fill="#BD75E9"/>
<path d="M853.214 533.766C853.214 533.766 847.428 543.208 848.845 544.132C850.262 545.057 866.455 549.211 870.935 539.058C875.417 528.905 870.043 529.98 874.391 519.324C878.739 508.67 867.798 501.179 862.054 501.699C862.054 501.699 865.137 515.985 862.912 519.028C860.688 522.074 860.692 533.298 853.214 533.766Z" fill="#1C2853"/>
<path d="M870.227 505.361C870.246 505.395 870.397 505.641 870.416 505.675C870.416 505.675 871.271 509.548 869.125 520.694C867.161 530.895 867.944 536.154 859.56 536.149C857.683 536.148 855.823 535.693 854.282 534.696C853.834 534.406 853.442 534.089 853.214 533.765C853.214 533.765 854.94 530.575 854.825 522.702C854.744 517.276 853.389 509.184 857.013 504.61C860.425 500.303 867.51 500.643 870.227 505.361Z" fill="#DFAD89"/>
<path d="M877.466 216.049C877.593 216.911 876.103 228.306 872.318 227.409C868.532 226.512 864.746 206.78 864.746 206.78C864.746 206.78 825.828 216.049 830.069 201.698C834.309 187.349 874.135 193.328 877.466 216.049Z" fill="#548DC0"/>
<path d="M870.198 199.307C870.198 199.307 878.526 196.168 877.012 194.225C875.498 192.282 871.107 194.524 871.107 194.524C871.107 194.524 871.561 191.086 869.138 190.039C866.715 188.993 860.658 195.421 870.198 199.307Z" fill="#548DC0"/>
<path d="M875.043 259.548C875.043 259.548 894.123 258.651 894.73 279.279C895.336 299.908 894.125 395.275 894.125 395.275C894.125 395.275 867.776 398.863 867.473 384.512C867.169 370.163 875.043 259.548 875.043 259.548Z" fill="#BD75E9"/>
<path d="M842.94 258.651C842.94 258.651 828.402 389.894 818.711 391.389C809.019 392.883 805.689 392.883 805.689 392.883C805.689 392.883 815.077 246.693 842.94 258.651Z" fill="#BD75E9"/>
<path d="M833.854 260.594C833.854 260.594 811.367 280.45 805.916 281.223C800.465 281.995 778.716 244.786 778.716 244.786L772.525 253.251C772.525 253.251 791.151 301.522 804.098 303.324C817.045 305.126 837.034 280.929 837.034 280.929L833.854 260.594Z" fill="#BD75E9"/>
<path d="M875.043 259.548C875.043 259.548 897.228 259.473 901.543 288.846C905.859 318.219 915.324 375.545 915.324 375.545L903.663 379.581L886.325 297.143L875.043 259.548Z" fill="#BD75E9"/>
<path d="M90.1135 94.198L85.616 93.636L85.353 96.6767C85.3058 97.6924 85.339 98.7106 85.3288 99.7276L85.3301 101.254C85.3543 101.761 85.4143 102.268 85.4552 102.775L85.7309 105.815L90.2347 105.495L89.9743 102.676C89.936 102.206 89.8773 101.738 89.8543 101.266L89.8518 99.8511C89.8607 98.9072 89.8249 97.9621 89.8696 97.0208L90.1135 94.198Z" fill="#7AD3F1"/>
<path d="M94.6287 78.019L90.4939 76.1766C89.696 78.053 88.8534 79.913 88.2534 81.8675C87.5322 83.7829 87.0866 85.7714 86.5773 87.7423L91.0007 88.7315C91.4781 86.9043 91.8853 85.0557 92.5556 83.2889C93.1045 81.4831 93.8921 79.7605 94.6287 78.019Z" fill="#7AD3F1"/>
<path d="M103.746 63.7667L100.27 60.8885C99.0061 62.4864 97.6657 64.0263 96.5436 65.7301C95.9717 66.5731 95.3461 67.3796 94.8202 68.2529L93.2397 70.869L97.1831 73.0843L98.6563 70.6472C99.144 69.8331 99.7325 69.0808 100.265 68.2932C101.308 66.6991 102.568 65.2625 103.746 63.7667Z" fill="#7AD3F1"/>
<path d="M116.358 52.3521L113.76 48.6801C112.127 49.9087 110.416 51.0428 108.89 52.4025C108.115 53.0666 107.31 53.6992 106.561 54.3911L104.35 56.5069L107.563 59.6686L109.63 57.6889C110.33 57.0412 111.084 56.4527 111.808 55.8302C113.233 54.5562 114.835 53.5052 116.358 52.3521Z" fill="#7AD3F1"/>
<path d="M131.554 44.4713L129.923 40.2926C126.141 41.8136 122.386 43.443 118.861 45.5109L121.123 49.3922C124.437 47.4452 127.984 45.9129 131.554 44.4713Z" fill="#7AD3F1"/>
<path d="M148.233 40.0176L147.477 35.6021C143.478 36.3216 139.483 37.147 135.596 38.3807L136.929 42.6614C140.612 41.4895 144.419 40.7069 148.233 40.0176Z" fill="#7AD3F1"/>
<path d="M165.532 38.6292L165.53 34.1506C161.479 34.1847 157.419 34.3321 153.385 34.8059L153.881 39.258C157.74 38.8031 161.637 38.662 165.532 38.6292Z" fill="#7AD3F1"/>
<path d="M182.913 39.8754L183.555 35.4422C179.55 34.8965 175.524 34.4668 171.477 34.3018L171.258 38.7753C175.155 38.9341 179.043 39.3499 182.913 39.8754Z" fill="#7AD3F1"/>
<path d="M200.041 43.3622L201.203 39.0336L195.332 37.6071C193.368 37.1585 191.377 36.822 189.401 36.4238L188.572 40.8268C190.491 41.2137 192.422 41.5375 194.331 41.9748L200.041 43.3622Z" fill="#7AD3F1"/>
<path d="M216.75 48.6259L218.323 44.4245C216.457 43.6899 214.534 43.0989 212.633 42.4511C210.731 41.8047 208.825 41.1708 206.883 40.639L205.576 44.9273C207.468 45.444 209.329 46.0627 211.188 46.6953C213.044 47.3304 214.921 47.9051 216.75 48.6259Z" fill="#7AD3F1"/>
<path d="M233.004 55.2783L234.886 51.203C231.255 49.5283 227.541 48.0249 223.838 46.5001L222.151 50.6574C225.785 52.1557 229.428 53.6288 233.004 55.2783Z" fill="#7AD3F1"/>
<path d="M248.854 62.9311L250.95 58.9604C247.39 57.1609 243.833 55.3551 240.212 53.6639L238.249 57.7015C241.819 59.3661 245.335 61.1518 248.854 62.9311Z" fill="#7AD3F1"/>
<path d="M264.4 71.2797L266.623 67.3758C263.146 65.449 259.657 63.5361 256.133 61.6774L253.987 65.6229C257.477 67.4652 260.942 69.3643 264.4 71.2797Z" fill="#7AD3F1"/>
<path d="M279.794 79.9785L282.066 76.1023L271.715 70.2186L269.467 74.1087L279.794 79.9785Z" fill="#7AD3F1"/>
<path d="M295.207 88.7466L297.453 84.854L287.122 78.9893L284.851 82.8655L295.207 88.7466Z" fill="#7AD3F1"/>
<path d="M310.844 97.2326L312.962 93.2719C309.46 91.4523 305.984 89.5784 302.525 87.6705L300.314 91.5808C303.799 93.5038 307.307 95.3928 310.844 97.2326Z" fill="#7AD3F1"/>
<path d="M326.844 105.11L328.765 101.053C325.176 99.429 321.648 97.6648 318.111 95.9246L316.048 99.9129C319.63 101.675 323.199 103.46 326.844 105.11Z" fill="#7AD3F1"/>
<path d="M343.304 112.107L344.948 107.934L339.468 105.749C337.642 105.018 335.85 104.199 334.04 103.427L332.2 107.522C334.041 108.306 335.86 109.137 337.72 109.882L343.304 112.107Z" fill="#7AD3F1"/>
<path d="M360.313 117.822L361.582 113.522C359.681 113.036 357.825 112.383 355.953 111.797C354.08 111.206 352.21 110.609 350.369 109.915L348.837 114.13C350.715 114.838 352.628 115.451 354.546 116.055C356.464 116.656 358.362 117.322 360.313 117.822Z" fill="#7AD3F1"/>
<path d="M377.859 121.873L378.64 117.462C376.719 117.087 374.773 116.839 372.87 116.364L367.138 115.051L366.016 119.39L371.911 120.741C373.867 121.227 375.878 121.489 377.859 121.873Z" fill="#7AD3F1"/>
<path d="M395.808 123.851L395.992 119.376L390.145 118.974C389.168 118.927 388.197 118.825 387.228 118.688L384.317 118.323L383.721 122.762L386.731 123.139C387.732 123.28 388.738 123.385 389.75 123.435L395.808 123.851Z" fill="#7AD3F1"/>
<path d="M413.907 123.183L413.397 118.733C412.429 118.84 411.466 118.99 410.495 119.063L407.573 119.221C405.625 119.299 403.681 119.507 401.726 119.431L401.763 123.91C403.79 123.986 405.815 123.775 407.841 123.692L410.879 123.526C411.89 123.45 412.898 123.295 413.907 123.183Z" fill="#7AD3F1"/>
<path d="M431.695 119.715L430.449 115.409L424.794 116.871L419.056 117.963L419.817 122.379L425.801 121.239L431.695 119.715Z" fill="#7AD3F1"/>
<path d="M448.658 113.446L446.744 109.385C445.006 110.266 443.183 110.953 441.376 111.676L438.664 112.761C437.759 113.119 436.82 113.383 435.899 113.698L437.371 117.933C438.33 117.604 439.308 117.328 440.25 116.956L443.072 115.83C444.953 115.078 446.85 114.359 448.658 113.446Z" fill="#7AD3F1"/>
<path d="M464.446 104.696L461.929 100.97C460.282 102.002 458.658 103.071 456.994 104.075L451.885 106.893L454.004 110.852L459.316 107.922C461.047 106.879 462.736 105.77 464.446 104.696Z" fill="#7AD3F1"/>
<path d="M478.699 93.6765L475.638 90.3711C474.258 91.7358 472.694 92.8964 471.212 94.1478L468.964 95.9964L466.604 97.7052L469.306 101.302L471.759 99.5236L474.097 97.6019C475.638 96.3039 477.261 95.0941 478.699 93.6765Z" fill="#7AD3F1"/>
<path d="M491.077 80.6213L487.532 77.8263C486.277 79.2982 485.095 80.833 483.782 82.2532L479.787 86.4722L483.014 89.6201L487.171 85.2297C488.538 83.7503 489.773 82.1549 491.077 80.6213Z" fill="#7AD3F1"/>
<path d="M501.213 65.7903L497.255 63.6027C496.819 64.4633 496.316 65.285 495.789 66.094L494.245 68.5412C493.72 69.3515 493.239 70.1882 492.679 70.9758L490.974 73.3184L494.663 75.9244L496.44 73.4823C497.021 72.6606 497.527 71.7886 498.074 70.9443L499.684 68.39C500.232 67.5469 500.756 66.6888 501.213 65.7903Z" fill="#7AD3F1"/>
<path d="M917.041 274.929L912.76 273.445C911.518 277.19 909.902 280.791 908.395 284.435L912.54 286.255C914.097 282.503 915.759 278.786 917.041 274.929Z" fill="#7AD3F1"/>
<path d="M922.108 257.528L917.68 256.549L916.279 262.291C915.754 264.19 915.158 266.07 914.601 267.961L918.937 269.279C919.511 267.332 920.124 265.395 920.664 263.439L922.108 257.528Z" fill="#7AD3F1"/>
<path d="M925.091 239.669L920.58 239.196C920.392 241.157 920.06 243.102 919.809 245.055C919.666 246.029 919.556 247.009 919.386 247.98L918.832 250.883L923.294 251.696L923.863 248.708C924.037 247.71 924.152 246.702 924.298 245.699C924.559 243.689 924.897 241.686 925.091 239.669Z" fill="#7AD3F1"/>
<path d="M925.963 221.591L921.426 221.625L921.466 224.579L921.358 227.531C921.26 229.498 921.268 231.472 921.084 233.432L925.609 233.739C925.797 231.721 925.792 229.691 925.891 227.667L926 224.63L925.963 221.591Z" fill="#7AD3F1"/>
<path d="M924.792 203.53L920.289 204.071C920.495 206.029 920.77 207.982 920.923 209.946L921.296 215.843L925.828 215.644L925.443 209.576C925.286 207.556 925.007 205.547 924.792 203.53Z" fill="#7AD3F1"/>
<path d="M921.574 185.705L917.163 186.754C918.003 190.604 918.907 194.441 919.468 198.343L923.947 197.636C923.369 193.62 922.441 189.669 921.574 185.705Z" fill="#7AD3F1"/>
<path d="M916.205 168.392L911.951 169.948C912.715 171.768 913.271 173.661 913.903 175.527C914.521 177.398 915.172 179.26 915.649 181.173L920.017 179.957C919.523 177.987 918.855 176.069 918.218 174.141C917.567 172.218 916.99 170.27 916.205 168.392Z" fill="#7AD3F1"/>
<path d="M908.785 151.822L904.752 153.874C906.656 157.338 908.198 160.971 909.843 164.556L914.031 162.834C912.338 159.136 910.745 155.392 908.785 151.822Z" fill="#7AD3F1"/>
<path d="M899.456 136.234L895.694 138.738L898.958 143.689C899.996 145.37 900.97 147.089 901.98 148.787L905.928 146.581C904.889 144.832 903.884 143.063 902.816 141.332L899.456 136.234Z" fill="#7AD3F1"/>
<path d="M888.357 121.826L884.91 124.737C886.224 126.219 887.429 127.793 888.694 129.315C889.313 130.087 889.959 130.838 890.557 131.627L892.313 134.019L895.976 131.376L894.167 128.915C893.552 128.105 892.888 127.33 892.251 126.536C890.951 124.969 889.709 123.352 888.357 121.826Z" fill="#7AD3F1"/>
<path d="M875.647 108.782L872.555 112.06L874.758 114.061L876.858 116.166C878.238 117.588 879.695 118.937 881.014 120.417L884.349 117.381C882.992 115.86 881.494 114.469 880.073 113.007L877.912 110.842L875.647 108.782Z" fill="#7AD3F1"/>
<path d="M861.549 97.215L858.852 100.816C860.437 102.014 862.063 103.158 863.614 104.397L868.212 108.181L871.179 104.792L866.448 100.898C864.851 99.6244 863.179 98.4449 861.549 97.215Z" fill="#7AD3F1"/>
<path d="M846.214 87.2786L843.956 91.1624C847.367 93.2051 850.814 95.1923 854.072 97.4707L856.629 93.7709C853.275 91.4282 849.727 89.3792 846.214 87.2786Z" fill="#7AD3F1"/>
<path d="M829.781 79.2363L828.005 83.357C829.869 84.0602 831.644 84.9599 833.452 85.7879C835.255 86.6297 837.071 87.4424 838.807 88.4128L840.912 84.4458C839.124 83.4478 837.252 82.6085 835.395 81.7415C833.532 80.8871 831.702 79.9622 829.781 79.2363Z" fill="#7AD3F1"/>
<path d="M489.15 46.6273L547.472 15L477.017 42.993L489.15 46.6273Z" fill="#7AD3F1"/>
<path d="M547.653 15.175L518.705 54.6178L491.496 52.4353L547.653 15.175Z" fill="#BD75E9"/>
<path d="M547.653 15.175L488.269 48.4985L474.658 74.6719L547.653 15.175Z" fill="#7AD3F1"/>
<path d="M840.449 62.7875L773.916 63.9065L849.156 53.6866L840.449 62.7875Z" fill="#7AD3F1"/>
<path d="M773.847 64.1484L818.81 84.205L841.334 68.9786L773.847 64.1484Z" fill="#BD75E9"/>
<path d="M773.847 64.1483L842.156 63.9795L867.132 80.0326L773.847 64.1483Z" fill="#7AD3F1"/>
<defs>
<linearGradient id="paint0_linear_5_879" x1="250.693" y1="390.506" x2="288.482" y2="390.506" gradientUnits="userSpaceOnUse">
<stop stop-opacity="0"/>
<stop offset="1"/>
</linearGradient>
<linearGradient id="paint1_linear_5_879" x1="345.182" y1="413.016" x2="372.381" y2="438.917" gradientUnits="userSpaceOnUse">
<stop stop-opacity="0"/>
<stop offset="1"/>
</linearGradient>
<linearGradient id="paint2_linear_5_879" x1="192.12" y1="418.258" x2="254.364" y2="390.933" gradientUnits="userSpaceOnUse">
<stop stop-opacity="0"/>
<stop offset="1"/>
</linearGradient>
<linearGradient id="paint3_linear_5_879" x1="301.034" y1="401.628" x2="341.259" y2="439.901" gradientUnits="userSpaceOnUse">
<stop stop-opacity="0"/>
<stop offset="1"/>
</linearGradient>
<linearGradient id="paint4_linear_5_879" x1="155.977" y1="406.111" x2="155.977" y2="481.832" gradientUnits="userSpaceOnUse">
<stop stop-opacity="0"/>
<stop offset="1"/>
</linearGradient>
<linearGradient id="paint5_linear_5_879" x1="201.795" y1="442.518" x2="396.758" y2="442.518" gradientUnits="userSpaceOnUse">
<stop stop-opacity="0"/>
<stop offset="1"/>
</linearGradient>
<linearGradient id="paint6_linear_5_879" x1="706.077" y1="390.506" x2="668.288" y2="390.506" gradientUnits="userSpaceOnUse">
<stop stop-opacity="0"/>
<stop offset="1"/>
</linearGradient>
<linearGradient id="paint7_linear_5_879" x1="611.589" y1="413.016" x2="584.389" y2="438.917" gradientUnits="userSpaceOnUse">
<stop stop-opacity="0"/>
<stop offset="1"/>
</linearGradient>
<linearGradient id="paint8_linear_5_879" x1="764.65" y1="418.258" x2="702.406" y2="390.933" gradientUnits="userSpaceOnUse">
<stop stop-opacity="0"/>
<stop offset="1"/>
</linearGradient>
<linearGradient id="paint9_linear_5_879" x1="655.736" y1="401.628" x2="615.511" y2="439.901" gradientUnits="userSpaceOnUse">
<stop stop-opacity="0"/>
<stop offset="1"/>
</linearGradient>
<linearGradient id="paint10_linear_5_879" x1="800.793" y1="406.111" x2="800.793" y2="481.832" gradientUnits="userSpaceOnUse">
<stop stop-opacity="0"/>
<stop offset="1"/>
</linearGradient>
<linearGradient id="paint11_linear_5_879" x1="754.975" y1="442.518" x2="560.013" y2="442.518" gradientUnits="userSpaceOnUse">
<stop stop-opacity="0"/>
<stop offset="1"/>
</linearGradient>
</defs>
</svg>
